<svg xmlns="http://www.w3.org/2000/svg" width="675" height="217" viewBox="0 0 675 217" fill="none"><path d="M670.21 147.938C669.062 147.938 668.016 148.68 667.476 150.233C660.558 169.974 651.211 181.717 643.517 181.717C639.097 181.717 637.308 176.79 637.308 169.062C637.308 149.727 648.883 108.726 654.721 90.0317C655.395 87.7707 655.834 85.746 655.834 84.025C655.834 78.5921 652.865 75.9262 645.508 75.9262C637.578 75.9262 629.041 79.0308 620.739 93.5749C617.871 80.7518 609.199 75.1501 597.084 75.1501C583.08 75.1501 569.548 84.16 558.412 98.7716C547.276 113.383 534.183 118.175 524.33 115.813C531.416 98.4679 534.048 85.5098 534.048 75.8925C534.048 60.8085 526.591 51.6973 514.544 51.6973C496.22 51.6973 485.658 69.1772 485.658 87.5683C485.658 101.775 492.103 116.386 506.276 123.473C494.398 150.334 477.053 174.63 470.473 174.63C461.969 174.63 459.472 133.023 459.944 103.26C460.248 86.1847 461.665 85.3074 461.665 80.1444C461.665 77.1748 459.742 75.1501 452.014 75.1501C433.994 75.1501 428.427 90.4029 427.583 107.917C427.311 114.572 426.269 121.174 424.478 127.59C416.953 154.451 401.431 174.833 391.307 174.833C386.616 174.833 385.334 170.142 385.334 164.001C385.334 144.665 396.166 120.503 396.166 99.8852C396.166 84.7337 389.519 75.1501 376.999 75.1501C362.253 75.1501 342.748 92.6975 324.289 125.565C330.364 100.391 332.861 76.0275 314.875 76.0275C310.973 76.0857 307.142 77.081 303.705 78.9296C302.551 79.4691 301.587 80.3434 300.937 81.4388C300.287 82.5342 299.981 83.7999 300.061 85.0711C301.782 111.865 278.464 180.502 256.361 180.502C252.345 180.502 250.388 176.149 250.388 169.13C250.388 149.76 261.929 108.861 267.733 90.1329C268.475 87.7033 268.88 85.6111 268.88 83.7888C268.88 78.6596 265.708 76.0275 258.52 76.0275C250.624 76.0275 242.053 79.0308 233.785 93.5749C230.883 80.7518 222.211 75.1501 210.096 75.1501C190.221 75.1501 168.016 96.1732 158.264 123.574C145.205 160.154 118.884 195.485 83.4514 195.485C51.2924 195.485 34.3187 168.725 34.3187 126.443C34.3187 65.3978 79.132 15.5227 112.371 15.5227C128.265 15.5227 135.857 25.6462 135.857 41.1689C135.857 59.9649 125.363 68.7048 125.363 75.8588C125.363 78.0522 127.185 80.2119 130.796 80.2119C145.238 80.2119 162.246 63.2381 162.246 40.0891C162.246 16.94 143.45 0 110.211 0C55.2743 0 0 55.2743 0 126.105C0 182.459 27.8059 216.44 75.8925 216.44C108.693 216.44 137.342 190.929 152.797 161.166C154.552 185.834 165.755 198.724 182.83 198.724C198.016 198.724 210.299 189.681 219.68 173.787C223.291 190.423 232.874 198.556 245.326 198.556C259.6 198.556 271.546 189.512 282.918 172.707C282.749 185.901 285.753 198.319 297.192 198.319C302.591 198.319 309.037 197.071 310.184 192.347C322.231 142.539 351.994 101.876 361.105 101.876C363.805 101.876 364.547 104.475 364.547 107.545C364.547 121.077 354.997 148.815 354.997 166.532C354.997 185.665 363.13 198.319 379.935 198.319C398.562 198.319 417.493 175.508 430.114 142.168C434.062 173.314 442.599 198.454 455.962 198.454C472.363 198.454 501.484 163.933 519.133 127.387C526.051 128.265 536.444 128.029 546.433 120.976C542.181 131.74 539.684 143.517 539.684 155.294C539.684 189.208 555.881 198.724 569.818 198.724C584.97 198.724 597.253 189.681 606.668 173.787C609.772 188.128 617.702 198.522 632.28 198.522C655.092 198.522 674.9 175.204 674.9 156.071C674.9 151.009 672.74 147.938 670.21 147.938ZM196.733 179.928C187.521 179.928 183.91 170.648 183.91 156.813C183.91 132.787 200.344 92.6638 217.723 92.6638C225.315 92.6638 228.184 101.606 228.184 112.54C228.184 136.937 212.56 179.928 196.733 179.928ZM512.283 108.22C506.782 101.674 504.791 92.765 504.791 84.8349C504.791 75.0489 508.368 66.7814 512.654 66.7814C516.94 66.7814 518.256 70.9995 518.256 76.8711C518.256 86.6909 514.746 101.033 512.283 108.22ZM583.721 179.928C574.509 179.928 570.898 169.265 570.898 156.813C570.898 133.63 587.332 92.6638 604.845 92.6638C612.438 92.6638 615.138 101.539 615.138 112.54C615.138 136.937 599.784 179.928 583.721 179.928Z" fill="url(#paint0_linear_2024_6412)"></path><defs><linearGradient id="paint0_linear_2024_6412" x1="90.5" y1="0.44042" x2="675" y2="176.94" gradientUnits="userSpaceOnUse"><stop stop-color="#02C1CD"></stop><stop offset="1" stop-color="#7B2AE8"></stop></linearGradient></defs></svg>