<svg xmlns="http://www.w3.org/2000/svg" width="673" height="169" viewBox="0 0 673 169" fill="none"><g clip-path="url(#clip0_2024_6424)"><mask id="mask0_2024_6424" style="mask-type:luminance" maskUnits="userSpaceOnUse" x="0" y="0" width="673" height="169"><path d="M672.404 0H0V169H672.404V0Z" fill="white"></path></mask><g mask="url(#mask0_2024_6424)"><path d="M98.6194 20.9578C97.947 18.5053 97.2746 16.0528 96.6022 13.6003C96.3778 12.9314 96.1538 12.4855 96.1538 11.8166C95.2574 10.033 93.9126 8.47229 92.1194 7.58048C91.447 7.35751 90.9986 7.13457 90.3262 6.9116C87.8609 6.01978 85.3953 5.12796 82.7057 4.45912C73.0681 1.56069 62.982 0 52.4475 0C52.2235 0 52.2235 0 51.9991 0C51.7751 0 51.7751 0 51.5511 0C41.2407 0 31.1547 1.56069 21.5169 4.23615C19.0514 4.90503 16.586 5.79684 13.8964 6.68866C13.4481 6.9116 12.7757 7.13457 12.1033 7.35751C10.3102 8.24936 8.96538 9.81002 8.06885 11.5937C7.84473 12.2625 7.62057 12.9314 7.62057 13.6003C6.72404 16.0528 6.05164 18.5053 5.37923 20.9578C2.24135 33.6662 0.448271 46.8206 0 60.4207V70.4539C0.448271 83.6083 2.24135 96.5396 5.15511 109.025C5.82752 111.477 6.49992 114.153 7.17232 116.606C7.39645 117.052 7.39645 117.72 7.62057 118.166C8.51713 120.173 9.86194 121.734 11.655 122.625C12.3274 122.848 12.7757 123.071 13.4481 123.294C15.9136 124.186 18.379 125.078 21.0687 125.747C30.7065 128.422 40.7926 129.983 51.3267 129.983C51.5511 129.983 51.5511 129.983 51.7751 129.983C51.9991 129.983 51.9991 129.983 52.2235 129.983C62.7576 129.983 72.8437 128.422 82.4817 125.747C84.947 125.078 87.6366 124.186 90.1022 123.294C90.7746 123.071 91.223 122.848 91.8954 122.625C93.6882 121.734 95.2574 120.173 95.9298 118.166C96.1538 117.72 96.1538 117.052 96.3778 116.606C97.0502 114.153 97.7226 111.7 98.395 109.025C101.981 94.9787 103.774 80.4868 103.774 65.549C104.223 49.942 102.205 35.2269 98.6194 20.9578ZM88.5334 105.904C88.085 107.464 87.8609 108.802 87.4126 110.14C87.4126 110.586 87.1885 111.032 87.1885 111.477C86.7402 112.815 85.6194 113.707 84.4989 114.153C84.0505 114.376 83.6021 114.376 83.1541 114.599C81.8093 115.045 80.6885 115.268 79.3437 115.714C70.8265 117.943 61.6372 119.058 52.4475 119.058C52.2235 119.058 52.2235 119.058 51.9991 119.058C51.7751 119.058 51.7751 119.058 51.5511 119.058C42.3615 119.058 33.1719 117.943 24.6548 115.714C23.31 115.491 22.1893 115.045 20.8445 114.599C20.3963 114.376 19.948 114.376 19.4997 114.153C18.379 113.707 17.2584 112.592 16.8101 111.477C16.586 111.032 16.586 110.586 16.586 110.14C16.1377 108.802 15.9136 107.241 15.4653 105.904C12.5516 92.7494 10.7585 79.1492 10.7585 65.3257C10.7585 51.0567 12.3274 37.2336 15.6894 23.8562C16.1377 22.2955 16.3618 20.7348 16.8101 19.3971C16.8101 19.1741 17.0342 18.7282 17.0342 18.5053C17.4825 17.1676 18.6032 16.0528 19.948 15.6069C20.1721 15.3839 20.6204 15.3839 21.0687 15.161C22.4135 14.715 23.5342 14.4921 24.879 14.0462C33.3961 12.0396 42.3615 10.7018 51.5511 10.7018C51.7751 10.7018 51.7751 10.7018 51.9991 10.7018C52.2235 10.7018 52.2235 10.7018 52.4475 10.7018C61.6372 10.7018 70.6025 11.8166 79.1197 14.0462C80.4645 14.2691 81.5849 14.715 82.9297 15.161C83.3781 15.3839 83.8265 15.3839 84.2745 15.6069C85.6194 16.2757 86.5161 17.1676 86.9642 18.5053C86.9642 18.7282 87.1885 19.1741 87.1885 19.3971C87.6366 20.9578 87.8609 22.5185 88.309 23.8562C91.447 37.2336 93.2402 51.0567 93.2402 65.3257C93.2402 79.3721 91.671 92.9723 88.5334 105.904Z" fill="black"></path><path d="M90.0999 133.773V134.888C89.6515 142.022 84.9447 145.59 81.3587 147.15C72.169 149.157 62.7554 150.272 52.8933 150.272C52.6693 150.272 52.6693 150.272 52.4453 150.272C52.2209 150.272 51.9969 150.272 51.9969 150.272C41.6868 150.272 31.8248 149.157 22.4111 146.927C18.825 145.144 14.7905 141.576 14.5664 134.888V133.327C15.0147 133.773 15.6871 134.219 16.5836 134.665C17.0319 134.888 17.4801 134.888 17.9284 135.111C19.2732 135.557 20.8422 135.78 22.187 136.226C31.8248 138.455 41.6868 139.57 52.2209 139.57C52.4453 139.57 52.6693 139.57 52.6693 139.57C52.8933 139.57 52.8933 139.57 53.1177 139.57C63.4278 139.57 73.5138 138.455 83.1515 136.226C84.4963 136.003 86.0655 135.557 87.4103 135.111C87.8583 134.888 88.3067 134.888 88.7551 134.665C88.9791 134.442 89.6515 133.996 90.0999 133.773Z" fill="black"></path><path d="M72.6235 73.5769C77.0801 73.5769 80.6924 69.9837 80.6924 65.5505C80.6924 61.1176 77.0801 57.5244 72.6235 57.5244C68.1673 57.5244 64.5547 61.1176 64.5547 65.5505C64.5547 69.9837 68.1673 73.5769 72.6235 73.5769Z" fill="black"></path><path d="M82.7049 154.064C82.0325 165.658 69.7052 167.664 69.7052 167.664L68.8085 167.887C63.4292 168.779 58.05 169.002 52.4468 169.002C52.2227 169.002 52.2227 169.002 51.9984 169.002C51.7743 169.002 51.7743 169.002 51.5503 169.002C45.4987 169.002 39.6711 168.556 33.8436 167.664C33.3953 167.664 21.5162 165.435 20.8438 153.841C22.1886 154.287 23.3092 154.51 24.654 154.956C33.1711 157.185 42.3607 158.3 51.5503 158.3C51.7743 158.3 51.7743 158.3 51.9984 158.3C52.2227 158.3 52.2227 158.3 52.4468 158.3C61.6364 158.3 70.8257 157.185 79.3429 154.956C80.4637 154.51 81.5841 154.287 82.7049 154.064Z" fill="black"></path><path d="M234.22 99.6596C230.858 105.903 225.702 110.808 219.202 114.375C212.478 117.942 204.634 119.503 195.444 119.503H167.203V35.8945H195.22C204.409 35.8945 212.254 37.6783 218.978 41.0224C225.702 44.3668 230.633 49.2717 233.995 55.5147C237.357 61.7572 239.15 69.1149 239.15 77.5872C239.374 86.0594 237.582 93.4171 234.22 99.6596ZM217.409 99.4367C222.789 94.3088 225.478 86.9512 225.478 77.5872C225.478 68.2231 222.789 60.8655 217.409 55.7376C212.03 50.6097 204.185 47.9341 194.099 47.9341H180.651V107.463H194.099C204.409 107.24 212.03 104.788 217.409 99.4367Z" fill="black"></path><path d="M296.531 57.521C301.685 60.1966 305.496 63.9869 308.409 69.1148C311.323 74.2427 312.668 80.0397 312.668 86.9511C312.668 93.8629 311.323 99.8825 308.409 104.788C305.496 109.916 301.685 113.706 296.531 116.381C291.375 119.057 285.772 120.394 279.496 120.394C273.22 120.394 267.393 119.057 262.462 116.381C257.531 113.706 253.497 109.916 250.583 104.788C247.669 99.6596 246.324 93.8629 246.324 86.9511C246.324 80.2627 247.669 74.2427 250.583 69.1148C253.497 63.9869 257.531 60.1966 262.462 57.521C267.393 54.8458 273.22 53.5078 279.496 53.5078C285.772 53.5078 291.599 54.8458 296.531 57.521ZM269.858 67.5542C266.945 69.1148 264.479 71.5674 262.686 74.9118C260.893 78.2559 259.996 82.2691 259.996 86.9511C259.996 91.8564 260.893 95.8693 262.686 98.9907C264.479 102.335 266.945 104.565 269.858 106.125C272.772 107.686 275.91 108.578 279.496 108.578C283.082 108.578 286.22 107.686 289.134 106.125C292.048 104.565 294.513 102.112 296.306 98.9907C298.099 95.6463 298.996 91.6331 298.996 86.9511C298.996 82.2691 298.099 78.2559 296.306 74.9118C294.513 71.5674 292.048 69.1148 289.134 67.5542C286.22 65.9933 283.082 65.1016 279.496 65.1016C275.91 65.1016 272.772 65.9933 269.858 67.5542Z" fill="black"></path><path d="M369.369 57.521C374.525 60.1966 378.337 63.9869 381.249 69.1148C384.162 74.2427 385.507 80.0397 385.507 86.9511C385.507 93.8629 384.162 99.8825 381.249 104.788C378.337 109.916 374.525 113.706 369.369 116.381C364.216 119.057 358.612 120.394 352.336 120.394C346.06 120.394 340.233 119.057 335.302 116.381C330.371 113.706 326.336 109.916 323.422 104.788C320.509 99.6596 319.164 93.8629 319.164 86.9511C319.164 80.2627 320.509 74.2427 323.422 69.1148C326.336 63.9869 330.371 60.1966 335.302 57.521C340.233 54.8458 346.06 53.5078 352.336 53.5078C358.612 53.5078 364.216 54.8458 369.369 57.521ZM342.474 67.5542C339.56 69.1148 337.095 71.5674 335.302 74.9118C333.509 78.2559 332.612 82.2691 332.612 86.9511C332.612 91.8564 333.509 95.8693 335.302 98.9907C337.095 102.335 339.56 104.565 342.474 106.125C345.388 107.686 348.526 108.578 352.112 108.578C355.698 108.578 358.836 107.686 361.75 106.125C364.662 104.565 367.129 102.112 368.923 98.9907C370.714 95.6463 371.613 91.6331 371.613 86.9511C371.613 82.2691 370.714 78.2559 368.923 74.9118C367.129 71.5674 364.662 69.1148 361.75 67.5542C358.836 65.9933 355.698 65.1016 352.112 65.1016C348.75 65.1016 345.388 65.9933 342.474 67.5542Z" fill="black"></path><path d="M426.526 67.7789C420.924 68.0018 416.666 69.3394 413.078 72.015C409.493 74.9136 407.698 79.5956 407.698 86.284V119.281H394.027V54.1787H407.698V66.8872C409.942 62.651 413.078 59.3066 417.339 56.8539C418.906 55.9622 420.474 55.0705 422.268 54.6246L426.526 67.7789Z" fill="black"></path><path d="M657.39 54.1787L639.235 102.114L619.508 54.1787H604.27L631.838 117.944L621.526 141.577H636.545L672.405 54.1787H657.39Z" fill="black"></path><path d="M585.89 54.177V63.3181L584.772 61.9801C579.839 56.4063 572.669 53.5078 564.151 53.5078C554.96 53.5078 546.445 56.6293 540.617 62.4263C534.565 68.446 531.426 76.6953 531.426 86.5052C531.426 96.3155 534.565 104.565 540.617 110.585C546.445 116.381 554.737 119.503 564.151 119.503C573.115 119.503 580.738 116.381 585.668 110.362L586.789 109.024V118.611H600.238V54.177H585.89ZM565.718 107.686C553.842 107.686 545.546 98.9907 545.546 86.5052C545.546 74.0197 553.842 65.3245 565.718 65.3245C577.599 65.3245 586.117 74.0197 586.117 86.5052C586.117 98.9907 577.822 107.686 565.718 107.686Z" fill="black"></path><path d="M531.419 54.624L510.575 119.504H495.559L481.438 75.136L466.646 119.504H451.63L430.785 54.624H444.679L459.699 102.782L475.164 54.624H488.162L503.178 102.782L518.644 54.624H531.419Z" fill="black"></path></g></g><defs><clipPath id="clip0_2024_6424"><rect width="672.404" height="169" fill="white"></rect></clipPath></defs></svg>