<svg xmlns="http://www.w3.org/2000/svg" width="570" height="185" viewBox="0 0 570 185" fill="none"><path d="M65.7509 71.0685C58.4165 87.6555 51.5334 103.227 44.6504 118.911C44.0862 120.265 43.9733 122.409 42.2808 122.522C40.3626 122.635 40.4754 120.378 39.9112 119.024C33.2538 103.566 26.7093 88.1069 19.2621 72.6482C18.2465 78.8543 17.1182 85.0603 16.1026 91.2663C15.0871 97.2467 14.1844 103.227 13.2817 109.207C12.6047 113.495 11.025 118.121 15.877 121.845C11.025 121.845 6.17299 121.845 1.321 121.845C0.192631 121.845 -0.48439 120.83 0.418305 120.378C6.06015 116.542 5.49596 110.223 6.5115 104.807C8.99391 92.0562 11.025 79.0799 13.3945 66.2165C13.9587 62.9443 13.6202 60.0105 10.3479 58.2051C9.55809 57.8666 8.6554 57.4153 8.99391 56.3997C9.33242 55.3842 10.4608 55.8355 11.2506 55.7227C12.0405 55.6099 12.9432 55.7227 13.7331 55.7227C18.1337 55.8355 23.437 54.3687 26.4836 56.3997C29.5302 58.4308 30.3201 63.9598 32.0126 67.9091C36.4133 78.1772 40.7011 88.4454 45.3274 99.3906C50.7435 87.6555 56.3854 76.7104 60.6732 65.201C63.4941 57.7538 67.1049 54.143 75.2292 55.7227C77.4859 56.174 79.9683 55.8355 82.225 55.8355C82.3379 56.3997 82.4507 56.8511 82.3379 56.9639C77.3731 59.8977 77.3731 64.1855 78.3886 69.2631C81.0967 83.0292 83.2406 96.9082 85.723 110.787C86.4 114.736 87.3027 118.799 91.252 121.507C84.3689 121.507 77.373 121.507 69.4745 121.507C74.1008 118.911 73.6494 115.413 72.9724 111.69C70.7157 99.0521 68.6846 86.4143 66.5407 73.8894C66.5407 73.0996 66.2022 72.5354 65.7509 71.0685Z" fill="black"></path><path d="M518.68 78.9678C514.957 87.6562 511.684 95.4419 508.412 103.228C506.043 108.87 503.673 114.624 501.191 120.266C500.626 121.507 500.626 123.538 499.047 123.651C497.128 123.651 497.241 121.394 496.79 120.04C490.245 103.679 483.701 87.2048 477.269 70.8435C475.125 65.4273 472.981 60.2368 468.242 56.1747C476.141 56.1747 484.152 56.1747 492.051 56.1747C492.164 57.9801 490.697 57.9801 489.794 58.5443C488.101 59.7855 487.424 61.3652 488.214 63.2834C492.953 75.357 497.693 87.5434 502.77 100.294C506.043 92.0568 509.202 84.4968 512.249 76.9367C515.295 69.2638 518.342 61.7037 522.517 53.918C528.384 68.9253 534.139 83.9326 540.006 99.0527C541.699 98.6014 541.586 97.0217 542.15 95.7805C545.987 86.6407 549.823 77.388 553.547 68.1354C555.127 64.0733 558.963 59.7855 552.644 55.949C558.173 55.949 563.815 55.949 569.344 55.949C562.574 59.8983 561.22 66.8942 558.625 73.1002C551.967 88.8974 545.535 104.695 538.878 120.492C538.427 121.62 538.427 123.425 537.073 123.538C535.154 123.651 535.38 121.62 534.929 120.379C529.625 107.064 524.322 93.5237 518.68 78.9678Z" fill="black"></path><path d="M412.158 123.651C398.731 123.2 386.996 119.025 379.097 107.403C368.039 90.9284 375.261 67.2327 393.992 58.5442C406.178 52.9024 418.816 52.6767 431.228 57.98C444.317 63.6219 451.538 73.89 451.426 88.2203C451.313 103.453 443.414 113.834 429.761 120.04C424.345 122.523 418.364 123.651 412.158 123.651ZM388.801 88.2203C388.688 91.9439 389.14 95.5547 390.042 99.0527C392.976 109.885 401.1 116.542 412.158 116.994C422.652 117.445 431.228 111.578 434.951 101.084C438.449 91.1541 437.66 81.4501 432.582 72.1975C425.699 60.0111 407.983 56.9645 397.602 66.2171C391.058 72.0846 388.575 79.6447 388.801 88.2203Z" fill="black"></path><path d="M265.254 56.6259C258.032 59.7853 259.386 65.8785 259.386 71.5204C259.386 78.5162 259.161 85.625 259.386 92.6209C260.063 117.671 237.722 127.713 219.104 121.958C206.24 118.009 198.793 107.967 198.793 94.6519C198.793 87.2047 198.906 79.7574 198.793 72.1974C198.68 66.3299 200.598 59.7853 192.361 56.6259C192.7 56.2874 193.038 55.9489 193.377 55.6104C200.937 55.6104 208.384 55.6104 215.944 55.6104C216.508 55.6104 217.185 55.6103 217.185 56.2874C217.185 56.7387 216.847 57.4157 216.396 57.6414C212.108 59.6725 212.108 63.3961 212.221 67.3454C212.333 77.3879 211.995 87.3175 212.446 97.36C212.898 110.449 222.714 118.009 235.578 115.752C243.928 114.286 249.908 106.387 250.247 96.1188C250.472 85.7378 250.359 75.244 250.247 64.863C250.247 62.0421 249.344 59.5596 246.636 58.2056C245.846 57.8671 245.169 57.4157 245.395 56.2874C245.62 55.4975 246.297 55.7232 246.749 55.7232C252.729 55.7232 258.709 55.7232 264.577 55.7232C264.803 56.0617 265.028 56.4002 265.254 56.6259Z" fill="black"></path><path d="M159.07 78.0652C158.619 84.7225 158.055 91.2671 157.604 97.8116C156.024 92.2826 152.187 91.1542 147.223 91.4928C142.822 91.8313 136.842 89.5745 134.246 92.3954C131.99 94.765 133.456 100.633 133.569 105.033C133.569 108.418 132.102 112.706 134.246 114.737C136.39 116.768 140.678 115.188 144.063 115.301C148.689 115.414 153.429 114.963 157.942 115.414C163.471 115.866 166.743 113.383 168.774 108.644C169 107.967 169.451 107.403 169.79 106.839C169.79 106.726 170.016 106.726 170.918 106.5C169.903 111.578 169 116.317 168.097 121.056C167.985 121.846 167.082 121.959 166.405 121.959C149.366 121.959 132.441 121.959 114.951 121.507C122.624 117.671 120.255 111.014 120.367 105.146C120.593 91.9441 120.367 78.6293 120.48 65.4274C120.48 62.3808 119.803 59.8984 116.982 58.3187C116.192 57.8674 114.838 57.6417 115.515 56.2876C115.967 55.3849 116.982 55.8363 117.772 55.8363C131.313 55.8363 144.853 55.8363 158.393 55.8363C162.004 55.8363 165.615 56.4005 169.79 54.9336C169.226 60.5754 168.662 65.7659 168.097 70.9564C165.051 62.7193 165.051 62.7193 156.249 62.7193C149.818 62.7193 143.273 62.8322 136.842 62.7193C134.472 62.6065 133.682 63.2835 133.795 65.7659C134.021 71.0693 134.021 76.4854 133.795 81.7888C133.682 84.6097 134.81 85.061 137.18 84.9482C141.806 84.7225 146.545 84.6097 151.172 84.9482C155.121 85.1739 157.378 84.0455 157.716 79.9834C157.716 79.4192 158.168 78.9679 158.393 78.5165C158.055 78.178 158.281 78.178 159.07 78.0652Z" fill="black"></path><path d="M306.093 86.2971C313.991 79.0756 322.906 71.177 331.707 63.0527C335.092 59.8933 332.158 58.3136 329.789 57.0724C329.901 55.8312 330.691 55.8312 331.368 55.8312C337.01 55.8312 342.652 55.8312 348.294 55.8312C348.971 55.8312 349.761 55.4926 350.099 56.3953C350.438 57.1852 349.874 57.6365 349.309 58.0879C333.399 69.7101 321.777 85.7329 307.56 99.0477C306.431 100.176 306.206 101.304 306.206 102.771C306.319 105.141 306.206 107.51 306.206 109.993C306.093 114.506 305.529 119.245 311.283 121.502C303.61 121.502 295.938 121.502 288.265 121.502C294.809 118.117 293.117 112.024 293.117 106.608C293.229 93.4058 293.117 80.0911 293.117 66.8892C293.117 63.2784 293.004 59.7804 289.055 57.9751C288.49 57.7494 287.813 57.1852 288.265 56.2825C288.603 55.4926 289.506 55.7183 290.183 55.7183C296.615 55.7183 303.159 55.7183 309.591 55.7183C310.268 55.7183 311.058 55.4926 311.283 56.3953C311.509 57.298 310.719 57.6365 310.155 57.9751C306.657 59.6676 306.093 62.6014 306.206 66.0993C306.206 73.5465 306.093 80.9938 306.093 86.2971Z" fill="black"></path><path d="M354.166 121.847C348.524 121.847 342.769 121.847 337.127 121.847C335.547 121.847 334.983 120.606 334.193 119.703C328.664 113.271 323.361 106.84 317.719 100.521C316.252 98.8283 316.252 97.8127 317.832 96.1202C324.715 89.0115 324.602 89.0115 330.921 96.5715C335.66 102.213 340.399 107.742 345.026 113.271C347.621 116.431 350.893 118.8 354.391 120.831C354.391 121.17 354.278 121.508 354.166 121.847Z" fill="black"></path><path d="M299.441 168.446C299.441 173.636 299.441 177.698 299.441 181.761C299.441 183.34 299.441 184.356 297.297 184.356C295.153 184.356 295.153 183.34 295.153 181.761C295.266 176.683 295.04 171.605 295.266 166.528C295.266 165.174 294.25 163.142 296.394 162.691C298.538 162.24 300.682 162.127 302.149 164.722C304.744 169.01 307.791 172.959 311.289 178.037C311.289 172.959 311.401 168.897 311.289 164.948C311.289 163.143 311.74 162.465 313.658 162.465C315.576 162.465 315.576 163.481 315.576 164.835C315.576 170.138 315.576 175.555 315.464 180.858C315.464 181.986 316.366 183.792 314.674 184.017C312.981 184.243 310.837 185.033 309.37 182.776C306.437 178.375 303.277 173.975 299.441 168.446Z" fill="black"></path><path d="M276.533 177.582C276.082 179.162 277.775 181.983 275.518 183.111C271.23 185.255 266.604 185.594 261.977 184.014C257.013 182.209 254.304 177.244 255.207 171.828C256.11 166.299 259.946 162.575 265.362 162.349C268.183 162.237 271.004 162.011 273.6 163.478C274.389 163.929 276.308 164.042 275.405 165.622C274.841 166.637 273.825 168.104 272.02 167.54C270.779 167.089 269.763 166.412 268.522 166.186C265.024 165.622 262.09 166.75 260.398 170.022C258.705 173.182 259.156 176.341 261.639 178.936C264.234 181.645 267.506 181.419 270.666 180.629C272.471 180.178 272.02 178.485 272.02 177.131C272.02 175.551 271.117 175.213 269.876 175.326C268.409 175.439 267.394 175.213 267.506 173.295C267.506 171.151 269.086 171.828 270.214 171.715C270.327 171.715 270.44 171.715 270.666 171.715C276.533 171.489 276.533 171.489 276.533 177.582Z" fill="black"></path><path d="M226.775 162.355C233.996 162.355 238.623 166.981 238.51 173.751C238.397 180.409 233.432 184.922 226.323 184.922C219.328 184.922 214.137 180.07 214.25 173.638C214.363 166.755 219.328 162.242 226.775 162.355ZM226.211 180.973C230.611 181.086 233.996 177.926 234.109 173.525C234.222 169.463 230.837 166.078 226.775 165.853C222.487 165.627 218.989 169.012 218.989 173.413C218.989 177.813 221.923 180.973 226.211 180.973Z" fill="black"></path><path d="M355.187 184.016C351.914 184.806 349.996 184.355 348.981 181.195C347.965 177.923 344.919 179.729 342.775 179.503C341.195 179.39 338.825 178.6 338.261 181.195C337.471 184.468 335.327 184.806 332.168 184.016C335.215 177.359 338.148 170.702 341.308 164.157C342.436 161.788 345.144 161.9 346.385 164.383C349.319 170.814 352.14 177.359 355.187 184.016ZM346.724 175.892C345.708 173.184 344.806 171.04 343.79 168.332C342.436 171.04 340.631 173.184 341.308 175.328C341.646 176.795 344.354 175.779 346.724 175.892Z" fill="black"></path><path d="M382.482 162.354C384.062 162.129 385.98 162.354 387.447 163.37C388.463 164.047 390.719 164.385 389.704 166.191C388.914 167.545 387.56 168.335 385.529 167.094C381.805 165.062 377.969 166.191 376.051 169.463C374.019 172.848 374.809 177.362 378.082 179.618C380.564 181.424 383.498 181.762 385.867 179.844C388.011 178.039 389.478 179.167 390.381 180.634C391.509 182.439 389.252 182.778 388.237 183.455C384.175 185.824 377.969 185.26 374.358 182.327C370.86 179.393 369.506 174.315 371.199 169.689C372.891 164.837 376.615 162.354 382.482 162.354Z" fill="black"></path><path d="M190.776 162.35C192.469 162.124 194.274 162.463 195.854 163.478C196.756 164.043 198.675 164.607 197.885 166.074C197.095 167.428 195.741 168.556 193.71 167.089C190.776 165.058 187.729 165.735 185.247 168.105C182.99 170.361 182.426 173.182 183.555 176.229C185.134 180.517 189.986 182.548 193.71 179.953C195.854 178.486 197.433 178.937 198.223 180.404C199.239 182.435 196.982 183.112 195.628 183.789C191.34 185.933 185.247 184.917 181.862 181.758C178.59 178.599 177.574 173.859 179.267 169.346C181.072 164.607 184.796 162.237 190.776 162.35Z" fill="black"></path><path d="M209.735 10.8089C209.735 7.53661 209.735 5.39271 209.735 3.24881C209.735 2.23327 209.284 0.879232 211.202 0.992069C212.782 1.10491 212.443 2.23327 212.443 3.13597C212.443 6.18257 212.556 9.342 212.443 12.3886C212.443 13.4041 213.12 14.7582 211.427 15.0967C210.073 15.3224 208.945 15.0967 208.155 13.8555C206.463 11.2602 204.657 8.66498 202.175 5.0542C202.175 8.55214 202.175 10.9217 202.175 13.1785C202.175 14.194 202.288 15.2095 200.708 15.0967C199.354 15.0967 199.128 14.3068 199.128 13.1785C199.128 9.90618 199.128 6.74675 199.128 3.47448C199.128 2.45895 198.677 1.10491 200.482 0.879232C201.724 0.766395 202.965 0.766395 203.867 2.0076C205.56 4.71569 207.365 7.31094 209.735 10.8089Z" fill="black"></path><path d="M314.899 6.63989C314.899 8.89663 314.899 11.2662 314.899 13.5229C314.899 14.4256 314.674 15.1027 313.545 15.1027C312.304 15.1027 312.191 14.4256 312.191 13.5229C312.191 9.91216 312.191 6.18854 312.191 2.57776C312.191 1.67507 312.304 0.998047 313.545 0.998047C314.899 0.998047 316.028 1.11088 316.818 2.46493C318.397 4.94734 320.09 7.20408 322.685 9.57365C322.685 7.54259 322.685 5.62436 322.685 3.5933C322.685 2.57776 322.347 1.22372 324.152 1.11088C325.957 0.998047 325.619 2.35209 325.732 3.48046C325.732 6.41422 325.845 9.34798 325.732 12.3946C325.732 13.5229 326.409 15.1027 324.378 15.3283C322.798 15.554 321.783 15.1027 320.88 13.6358C319.3 11.2662 317.608 8.89663 316.028 6.52705C315.577 6.41422 315.238 6.52705 314.899 6.63989Z" fill="black"></path><path d="M182.88 15.3285C178.141 15.3285 174.982 12.2819 175.095 7.88127C175.208 3.48063 178.367 0.546875 183.106 0.546875C187.845 0.546875 190.892 3.59347 190.892 7.99411C190.779 12.6204 187.732 15.4413 182.88 15.3285ZM187.845 7.99411C187.507 5.17319 186.153 3.3678 183.106 3.25496C180.06 3.25496 178.367 4.94751 178.367 7.88127C178.367 10.815 179.834 12.6204 182.993 12.6204C186.04 12.7333 187.394 10.9279 187.845 7.99411Z" fill="black"></path><path d="M221.469 7.98805C222.71 5.3928 218.986 0.315138 225.757 0.766485C232.075 1.21783 235.122 3.13606 235.122 7.98805C235.122 12.6144 231.737 14.7583 225.644 15.0968C218.761 15.5481 222.936 10.3576 221.469 7.98805ZM224.402 7.87521C225.869 9.22925 222.71 12.6144 226.772 12.5015C229.593 12.3887 232.188 11.486 232.075 7.87521C231.963 4.37726 229.48 3.47457 226.659 3.47457C222.823 3.47457 225.644 6.52117 224.402 7.87521Z" fill="black"></path><path d="M374.354 9.23132C373.677 8.10295 373.451 7.42593 373.902 6.07189C375.031 2.79962 373.225 0.768555 369.727 0.768555C366.342 0.881392 364.537 3.02529 365.778 5.95905C366.342 7.31309 366.342 7.99012 365.552 9.11849C364.198 11.0367 364.875 12.9549 366.568 14.1961C368.712 15.7759 371.081 15.663 373.225 14.309C375.031 13.0678 375.369 11.0367 374.354 9.23132ZM371.984 10.811C371.758 12.0522 370.856 12.7293 369.502 12.5036C368.26 12.3908 368.035 11.4881 367.809 10.5854C368.148 9.11849 369.05 8.66714 370.292 8.77997C371.307 9.11848 372.21 9.68267 371.984 10.811ZM371.984 4.94352C371.758 6.18473 370.856 6.86175 369.502 6.63607C368.26 6.52324 368.035 5.62054 367.809 4.71785C368.148 3.25097 369.05 2.79962 370.292 3.02529C371.307 3.13813 372.21 3.70231 371.984 4.94352Z" fill="black"></path><path d="M297.745 15.0993C293.909 16.1148 292.555 14.1966 293.232 10.0216C293.345 9.23178 293.232 8.32908 293.232 7.53922C293.232 0.656175 294.473 -0.359357 301.469 0.994685C302.371 1.10752 303.161 1.3332 303.161 2.34873C303.161 3.58993 302.033 3.25142 301.356 3.4771C299.551 4.15412 296.165 1.78454 296.165 5.28249C296.165 8.55476 299.438 6.07234 301.243 6.74937C302.033 7.08788 302.936 6.8622 302.71 8.10341C302.597 9.34461 301.582 9.0061 300.905 9.23178C299.325 10.0216 295.94 7.31355 296.165 11.0372C296.391 14.4223 299.551 11.827 301.243 12.6169C302.033 12.9554 303.726 11.9399 303.613 13.9709C303.5 15.4378 302.259 15.0993 301.356 15.0993C300.453 15.0993 299.438 15.0993 297.745 15.0993Z" fill="black"></path><path d="M262.309 7.99343C262.309 7.76776 262.309 7.42925 262.309 7.20358C262.309 1.11038 264.791 -0.695006 270.884 0.884711C271.674 1.11038 272.238 1.33606 272.238 2.23875C272.238 3.47996 271.11 3.14145 270.433 3.47996C268.74 4.26982 265.468 1.67457 265.355 5.05968C265.242 8.67046 268.627 6.07521 270.207 6.75223C270.884 6.9779 271.561 6.9779 271.561 7.8806C271.561 8.67046 271.336 9.23464 270.32 9.23464C270.094 9.23464 269.756 9.1218 269.53 9.23464C268.063 9.79882 264.904 7.54209 265.242 11.2657C265.468 14.0866 268.176 12.1684 269.643 12.7326C270.546 13.0711 272.238 11.9427 272.351 13.7481C272.464 15.892 270.659 15.1022 269.643 15.215C262.309 15.3278 262.309 15.3278 262.309 7.99343Z" fill="black"></path><path d="M243.58 7.76572C243.58 0.54416 244.596 -0.358534 251.817 0.882672C252.72 0.995508 253.51 0.995509 253.623 2.12388C253.735 3.81643 252.381 3.02657 251.592 3.36508C249.899 4.0421 246.74 1.67253 246.514 4.9448C246.401 8.55558 249.673 5.96033 251.366 6.63735C252.043 6.97586 253.171 6.52452 253.058 7.76572C253.058 8.89409 252.381 9.2326 251.366 9.11977C250.802 9.11977 250.237 9.00693 249.673 9.11977C248.432 9.45828 246.288 8.10423 246.288 10.8123C246.288 13.6332 248.432 12.1664 249.673 12.5049C250.35 12.6177 251.027 12.5049 251.817 12.5049C252.607 12.6177 253.623 12.1664 253.735 13.4076C253.848 14.8744 252.946 14.9873 251.817 14.9873C251.704 14.9873 251.592 14.9873 251.366 14.9873C243.58 15.6643 243.58 15.6643 243.58 7.76572Z" fill="black"></path><path d="M401.777 4.71785C402.229 1.89692 404.034 0.768555 406.516 0.768555C408.435 0.768555 410.24 1.2199 411.03 3.13813C412.045 5.62054 410.917 7.42593 409.112 9.00565C408.096 9.90834 407.081 10.9239 405.952 12.0522C406.404 12.2779 406.629 12.5036 406.968 12.6164C408.435 13.2935 411.368 11.1496 411.368 13.9705C411.368 16.1144 408.547 14.7603 407.081 15.0988C406.291 15.3245 405.388 15.2117 404.598 15.0988C403.583 14.986 402.229 15.7759 401.777 14.1961C401.439 12.8421 402.003 11.8266 403.131 10.9239C404.711 9.68267 406.065 8.32863 407.419 6.86175C408.209 6.07189 409.224 5.16919 408.209 4.04082C407.306 3.02529 406.178 3.13813 405.275 4.15366C404.373 5.16919 403.357 5.16919 401.777 4.71785Z" fill="black"></path><path d="M388.575 5.39913C392.863 7.09168 394.443 9.34842 393.201 12.2822C391.96 15.2159 389.252 15.6673 386.544 15.1031C385.303 14.8774 384.175 14.2004 383.61 12.9592C381.579 9.23558 386.318 1.337 390.945 1.11133C390.719 2.91672 389.026 3.81941 388.575 5.39913ZM390.719 10.5896C390.606 9.23558 389.929 8.33289 388.349 8.22005C386.995 8.22005 386.093 8.78424 385.867 10.0254C385.641 11.4923 386.544 12.395 387.898 12.6207C389.478 12.8464 390.268 11.9437 390.719 10.5896Z" fill="black"></path><path d="M157.943 7.53626C157.943 0.427541 158.846 -0.24948 165.729 0.878889C166.632 0.991725 167.422 1.10456 167.422 2.23293C167.422 3.58697 166.293 3.13563 165.616 3.3613C164.037 4.15116 160.764 1.44307 160.764 5.05385C160.764 8.32612 163.698 6.18222 165.278 6.63357C166.293 6.85924 167.309 6.74641 167.196 8.21329C167.083 9.45449 165.955 9.22882 165.278 9.11598C162.005 8.77747 159.749 9.22882 160.651 13.4038C160.877 14.3065 160.539 14.9835 159.297 14.9835C158.169 14.9835 157.943 14.1936 157.943 13.2909C157.943 11.4856 157.943 9.45449 157.943 7.53626Z" fill="black"></path><path d="M353.486 7.99218C353.486 9.34623 353.598 10.8131 353.486 12.1671C353.373 13.2955 354.163 14.9881 352.019 14.9881C350.213 14.9881 350.89 13.4084 350.89 12.3928C350.778 11.0388 351.003 9.5719 350.89 8.21786C350.778 6.86381 351.906 3.93005 348.408 5.96112C348.182 6.07396 347.392 5.50977 347.167 5.05842C346.603 4.26857 347.392 3.81722 347.957 3.36587C349.423 2.35034 350.552 0.544948 352.583 0.883459C353.711 0.996296 353.486 2.12466 353.486 2.91452C353.598 4.60708 353.486 6.29963 353.486 7.99218Z" fill="black"></path></svg>