<svg xmlns="http://www.w3.org/2000/svg" width="889" height="181" viewBox="0 0 889 181" fill="none"><mask id="mask0_2024_6440" style="mask-type:luminance" maskUnits="userSpaceOnUse" x="0" y="0" width="889" height="181"><path d="M888.292 0H0V181H888.292V0Z" fill="white"></path></mask><g mask="url(#mask0_2024_6440)"><mask id="mask1_2024_6440" style="mask-type:luminance" maskUnits="userSpaceOnUse" x="0" y="0" width="137" height="137"><path d="M136.446 0H0V136.446H136.446V0Z" fill="white"></path></mask><g mask="url(#mask1_2024_6440)"><path d="M136.446 0H0V136.446H136.446V0Z" fill="white"></path><path d="M34.8077 64.3246C24.7831 65.9954 16.7077 69.3369 10.0246 74.6277C6.12615 77.4123 2.78462 81.0323 0 84.9308V0H34.8077C33.4154 0.835385 32.0231 1.94923 30.6308 3.06308C21.9985 10.3031 17.8215 19.7708 17.8215 31.7446C17.8215 37.8708 19.2138 43.7185 21.9985 48.7308C24.7831 54.0215 28.96 58.7554 35.0862 63.4892V64.3246H34.8077Z" fill="white"></path><path d="M93.841 65.9954C90.221 71.8431 88.55 79.64 88.55 89.1077C88.55 97.74 90.7776 104.98 94.9546 110.549C99.1315 116.118 104.701 118.903 111.662 118.903C116.675 118.903 120.851 117.511 124.193 115.005C127.813 112.498 129.763 108.6 130.598 103.866C131.155 99.9677 130.598 96.9046 129.206 94.3985C127.535 91.8923 126.421 90.5 125.585 90.2215C125.307 90.2215 124.472 90.7785 123.079 92.1708C121.687 93.5631 120.016 94.6769 117.51 95.7908C115.283 96.9046 112.498 97.1831 109.435 96.9046C106.371 96.3477 104.144 94.9554 102.752 93.0062C101.359 90.7785 100.524 88.5508 100.246 86.3231C99.9672 82.1462 101.359 78.8046 103.865 76.02C106.371 73.5138 109.435 71.5646 113.333 70.1723C116.953 68.78 120.295 68.2231 123.358 68.2231C128.649 68.2231 133.104 69.3369 137.281 71.2862V136.446H23.1116C20.327 129.485 18.6562 121.688 18.6562 113.055C18.6562 106.651 20.0486 100.246 22.5547 94.12C25.0609 87.9938 28.9595 82.7031 34.2502 78.5262C39.541 74.3492 46.2241 71.8431 54.5779 71.0077H64.0456C65.7164 71.0077 67.1087 70.4508 67.9441 69.0585C68.7795 67.6661 69.0576 66.2738 69.0576 64.6031C68.7792 60.9831 68.2225 59.0338 66.8302 58.4769C65.4379 57.92 63.7672 57.92 61.5395 57.92H52.9072C41.7687 51.7938 36.1995 42.3262 36.1995 29.2385C36.1995 21.9985 38.4272 15.5938 42.8825 10.0246C47.3379 4.45538 54.2992 1.67077 63.4884 1.67077C69.0576 1.67077 73.5133 3.06308 77.4115 6.40462C81.31 9.46769 82.9807 13.6446 82.9807 19.2138C82.9807 22.2769 82.1456 24.7831 80.7533 27.0108C79.361 29.2385 77.9687 30.6308 76.2979 32.0231C74.6272 33.1369 74.0702 33.9723 74.0702 34.2508C74.0702 35.0862 75.1841 36.4785 77.4115 38.7062C79.6392 40.6554 82.7025 41.7692 86.601 41.7692C92.7272 41.7692 97.1825 39.5415 100.246 35.3646C103.309 30.9092 104.979 26.1754 104.979 20.6062C104.979 14.2015 103.03 8.63231 99.4102 4.45538C98.2964 2.78462 96.6253 1.39231 94.9546 0H136.446V42.0477C133.383 42.6046 130.598 43.1615 127.813 43.9969C120.573 45.6677 113.89 48.1738 108.042 51.7938C102.195 55.1354 97.461 59.8692 93.841 65.9954Z" fill="white"></path><path d="M93.841 65.9954C90.221 71.8431 88.55 79.64 88.55 89.1077C88.55 97.74 90.7776 104.98 94.9546 110.549C99.1315 116.118 104.701 118.903 111.662 118.903C116.675 118.903 120.851 117.511 124.193 115.005C127.813 112.498 129.763 108.6 130.598 103.866C131.155 99.9677 130.598 96.9046 129.206 94.3985C127.535 91.8923 126.421 90.5 125.585 90.2215C125.307 90.2215 124.472 90.7785 123.079 92.1708C121.687 93.5631 120.016 94.6769 117.51 95.7908C115.283 96.9046 112.498 97.1831 109.435 96.9046C106.371 96.3477 104.144 94.9554 102.752 93.0062C101.359 90.7785 100.524 88.5508 100.246 86.3231C99.9672 82.1462 101.359 78.8046 103.865 76.02C106.371 73.5138 109.435 71.5646 113.333 70.1723C116.953 68.78 120.295 68.2231 123.358 68.2231C128.649 68.2231 133.104 69.3369 137.281 71.2862V136.446H23.1116C20.327 129.485 18.6562 121.688 18.6562 113.055C18.6562 106.651 20.0486 100.246 22.5547 94.12C25.0609 87.9938 28.9595 82.7031 34.2502 78.5262C39.541 74.3492 46.2241 71.8431 54.5779 71.0077H64.0456C65.7164 71.0077 67.1087 70.4508 67.9441 69.0585C68.7795 67.6661 69.0576 66.2738 69.0576 64.6031C68.7792 60.9831 68.2225 59.0338 66.8302 58.4769C65.4379 57.92 63.7672 57.92 61.5395 57.92H52.9072C41.7687 51.7938 36.1995 42.3262 36.1995 29.2385C36.1995 21.9985 38.4272 15.5938 42.8825 10.0246C47.3379 4.45538 54.2992 1.67077 63.4884 1.67077C69.0576 1.67077 73.5133 3.06308 77.4115 6.40462C81.31 9.46769 82.9807 13.6446 82.9807 19.2138C82.9807 22.2769 82.1456 24.7831 80.7533 27.0108C79.361 29.2385 77.9687 30.6308 76.2979 32.0231C74.6272 33.1369 74.0702 33.9723 74.0702 34.2508C74.0702 35.0862 75.1841 36.4785 77.4115 38.7062C79.6392 40.6554 82.7025 41.7692 86.601 41.7692C92.7272 41.7692 97.1825 39.5415 100.246 35.3646C103.309 30.9092 104.979 26.1754 104.979 20.6062C104.979 14.2015 103.03 8.63231 99.4102 4.45538C98.2964 2.78462 96.6253 1.39231 94.9546 0H136.724V42.0477C133.661 42.6046 130.876 43.1615 128.092 43.9969C120.852 45.6677 114.169 48.1738 108.321 51.7938C102.195 55.1354 97.461 59.8692 93.841 65.9954Z" fill="#FF0037"></path><path d="M34.8077 63.4892V64.3246C24.7831 65.9954 16.7077 69.3369 10.0246 74.6277C6.12615 77.4123 2.78462 81.0323 0 84.9308V0H34.8077C33.4154 0.835385 32.0231 1.94923 30.6308 3.06308C21.9985 10.3031 17.8215 19.7708 17.8215 31.7446C17.8215 37.8708 19.2138 43.7185 21.9985 48.7308C24.5046 54.0215 28.96 59.0338 34.8077 63.4892Z" fill="#FF0037"></path></g><path d="M832.318 131.433C832.04 129.762 831.483 129.205 829.812 128.927C828.977 128.927 828.142 128.927 827.306 128.649C825.635 128.37 823.965 128.37 822.572 128.092C819.231 127.256 817.003 125.029 816.725 121.687C816.446 118.902 816.446 115.839 816.168 112.776C816.168 98.2962 816.168 83.5378 816.168 69.0578C816.168 66.8301 816.168 64.8808 815.889 62.6531C814.775 53.7424 810.877 46.5024 803.637 41.2116C798.625 37.5916 792.777 36.1993 786.372 35.6424C775.791 35.0855 766.323 37.5916 758.248 44.2747C755.463 46.5024 752.957 49.0085 750.172 51.5147C749.894 51.7931 749.337 52.0716 749.058 52.3501C749.058 52.3501 748.78 52.3501 748.78 52.0716V39.2624C748.78 38.7055 748.78 38.1485 748.78 37.5916C748.501 35.6424 747.388 34.5285 745.438 34.807C743.768 34.807 742.097 35.3639 740.705 35.9208C734.3 38.427 727.895 40.0978 721.212 41.2116C719.542 41.4901 717.871 41.7685 716.2 42.047C714.251 42.6039 713.415 43.9962 713.415 46.2239C713.415 48.7301 714.251 49.5655 716.478 49.8439C718.149 50.1224 720.098 50.1224 721.769 50.1224C726.225 50.6793 728.731 52.907 729.288 57.3624C729.566 59.8685 729.566 62.6531 729.566 65.1593C729.566 80.7531 729.566 96.6254 729.566 112.498C729.566 115.561 729.288 118.624 729.009 121.687C728.731 125.029 726.503 127.535 723.44 128.092C719.263 128.927 714.808 128.927 710.631 128.092C706.732 127.535 704.783 125.307 704.226 121.13C703.948 118.624 703.948 116.118 703.948 113.333C703.948 98.2962 703.948 83.2593 703.948 68.2224C703.948 65.9947 703.948 64.0455 703.669 62.0962C702.834 50.4008 696.708 42.8824 685.848 38.9839C680.835 37.0347 675.823 36.4778 670.532 35.9208C662.178 35.0855 653.825 35.9208 645.749 38.1485C641.015 39.5408 636.56 41.7685 633.218 45.667C627.928 51.5147 627.649 61.2608 632.105 67.9439C634.054 71.007 636.838 72.9562 640.458 73.5131C644.914 74.3485 649.091 73.2347 651.875 69.3362C652.432 68.5008 652.711 67.6655 651.597 67.1085C651.04 66.8301 650.483 66.2731 649.926 65.7162C646.028 62.6531 644.914 58.4762 645.749 53.7424C646.863 48.4516 650.205 45.1101 654.938 43.1608C660.508 40.9331 666.077 41.4901 671.646 43.1608C676.658 44.5531 680.278 47.6162 681.949 52.6285C682.785 54.8562 683.62 57.6408 683.62 60.147C683.898 66.8301 683.898 73.5131 683.898 80.1962C683.898 80.4747 683.898 80.4747 683.898 80.7531C676.937 81.3101 669.975 81.867 663.014 82.4239C655.217 82.9808 647.698 84.6516 640.18 87.1578C634.611 89.107 629.32 92.1701 625.7 97.1824C620.966 103.309 620.131 110.549 621.523 117.789C623.194 127.535 629.32 133.939 638.509 137.281C646.863 140.065 655.217 139.509 663.571 137.002C671.089 134.775 677.494 131.155 681.949 125.029C682.785 123.915 683.341 123.079 684.177 121.965C684.177 122.244 684.455 122.522 684.455 122.801C685.291 125.029 686.126 127.256 687.24 129.484C689.189 133.104 692.252 135.889 696.708 136.445C700.328 137.002 703.669 137.281 707.289 137.281C715.086 137.281 722.605 136.724 730.401 136.724C740.705 136.724 751.008 137.002 761.032 137.281C762.981 137.281 764.374 136.724 764.652 134.775C764.931 133.661 764.652 132.269 764.652 130.876C764.652 129.762 763.817 129.205 762.703 129.205C760.475 128.927 758.526 128.927 756.298 128.649C752.4 128.092 749.615 125.864 749.058 121.965C748.78 120.573 748.78 119.181 748.78 117.51C748.78 99.4101 748.78 81.3101 748.78 63.4885C748.78 62.6531 749.058 61.8178 749.615 61.2608C757.134 51.2362 767.158 46.5024 779.689 48.4516C787.765 49.5655 793.334 54.2993 795.562 62.3747C796.118 64.3239 796.118 66.5516 796.118 68.7793C796.118 83.8162 796.118 98.8531 796.118 114.169C796.118 116.396 796.118 118.624 795.84 120.852C795.561 125.864 793.334 128.092 788.322 128.649C786.372 128.927 784.145 128.927 782.195 129.205C781.638 129.205 780.803 129.762 780.525 130.319C779.689 131.99 779.689 133.939 780.803 135.61C781.917 137.281 783.309 137.281 784.98 137.281C789.714 137.002 794.726 136.724 799.46 136.724C808.928 136.724 818.674 137.002 828.141 137.281C830.369 137.281 831.761 136.167 832.04 133.939C832.318 133.104 832.318 132.269 832.318 131.433ZM684.177 89.6639C684.177 94.1193 684.177 98.2962 683.898 102.752C683.063 115.282 672.203 126.142 659.672 127.256C656.888 127.535 654.103 127.535 651.597 126.699C646.863 125.307 644.357 121.965 643.522 117.51C642.686 113.055 642.965 108.599 644.357 104.144C646.028 99.1316 649.648 95.7901 654.381 93.5624C659.115 91.3347 664.128 89.9424 669.14 89.107C673.874 88.2716 678.886 87.9931 683.62 87.4362C683.898 87.4362 683.898 87.4362 684.455 87.4362V89.6639H684.177Z" fill="#18191D"></path><path d="M503.462 75.1845C501.512 63.7676 496.5 54.0215 487.589 46.2245C477.008 37.3138 465.034 34.2507 451.668 36.7568C443.314 38.4276 435.796 42.883 429.391 48.4522C429.112 48.7307 428.834 49.0092 428.277 49.2876L427.999 49.0092V47.3384C427.999 44.2753 427.999 40.9338 427.999 37.8707C427.999 35.9215 426.606 34.8076 424.657 34.8076C422.986 34.8076 421.594 35.3645 419.923 35.643C412.405 38.7061 404.329 40.3768 396.254 41.4907C392.912 42.0476 391.799 43.7184 392.356 47.0599C392.634 48.7307 393.191 49.2876 394.862 49.5661C396.811 49.8445 398.76 49.8445 400.709 50.123C405.165 50.6799 407.671 52.9076 408.228 57.6415C408.506 60.4261 408.506 63.2107 408.506 65.9953C408.506 95.5122 408.506 125.029 408.506 154.825C408.506 158.166 408.506 161.786 408.228 165.128C407.949 169.583 405.443 172.368 400.709 172.925C398.76 173.203 396.532 173.203 394.583 173.481C393.748 173.481 392.912 174.038 392.912 174.874C392.634 175.988 392.356 177.38 392.634 178.494C392.912 180.721 394.305 181.557 396.532 181.557C400.431 181.557 404.329 181 407.949 181C418.531 181 429.391 181.278 439.972 181.557C442.757 181.557 444.149 180.443 444.428 177.38C444.706 174.874 443.592 173.481 441.086 173.203C439.416 172.925 437.466 173.203 435.796 172.925C431.897 172.368 429.391 169.861 428.834 165.963C428.556 163.735 428.277 161.508 428.277 159.28C428.277 150.926 428.277 142.294 428.277 133.94C428.277 133.661 428.277 133.105 428.277 132.548C428.834 132.826 429.391 132.826 429.669 133.105C439.416 138.952 449.997 140.623 460.857 138.952C481.742 135.889 495.386 123.637 502.069 103.866C505.411 94.3984 505.132 84.6522 503.462 75.1845ZM481.742 96.9045C480.906 103.588 479.514 109.992 476.451 116.118C474.502 120.295 471.717 123.915 468.097 126.978C463.642 130.598 458.351 131.991 452.503 131.712C442.2 131.712 434.682 126.7 429.391 118.068C428.556 116.954 428.277 115.84 428.277 114.448C428.277 105.258 428.277 96.3476 428.277 87.1584C428.277 77.9692 428.277 68.7799 428.277 59.5907C428.277 58.7553 428.556 57.9199 429.391 57.363C432.176 55.1353 434.96 52.6292 438.023 50.6799C443.036 47.3384 448.605 46.7815 454.452 47.3384C467.262 48.4522 474.502 56.5276 478.957 67.6661C482.299 76.8553 482.856 86.6015 481.742 96.9045Z" fill="#18191D"></path><path d="M614.845 72.1227C612.617 61.8197 607.605 52.9089 599.529 45.9473C589.505 37.315 577.531 34.252 564.722 36.4797C555.811 38.1504 548.292 42.6058 541.331 48.4535C541.052 48.732 540.495 49.0104 539.938 49.5673C539.938 48.732 539.938 48.4535 539.938 47.8966C539.938 44.555 539.938 41.2135 539.938 37.872C539.938 35.6443 538.546 34.252 536.04 34.5304C534.648 34.5304 533.255 34.8089 531.863 35.3658C524.345 38.4289 516.269 40.0997 508.194 41.2135C504.852 41.7704 503.46 43.4412 504.295 47.0612C504.574 48.4535 505.131 49.2889 506.523 49.2889C508.472 49.5673 510.422 49.5673 512.649 49.8458C517.105 50.1243 519.889 52.9089 520.168 56.8073C520.446 59.592 520.446 62.0981 520.446 64.8827C520.446 95.792 520.446 126.701 520.446 157.61C520.446 160.117 520.446 162.344 520.168 164.85C519.889 169.306 517.383 172.09 512.649 172.647C510.7 172.926 508.751 172.926 506.802 172.926C505.409 172.926 504.852 173.761 504.574 175.153C504.574 175.71 504.295 175.989 504.295 176.546C504.017 179.33 505.966 181.28 508.751 181.001C512.928 181.001 517.105 180.444 521.56 180.444C531.863 180.444 542.166 180.723 552.748 181.001C555.254 181.001 556.368 179.609 556.646 177.938C556.925 177.103 556.646 175.989 556.646 174.875C556.368 173.761 555.811 172.926 554.418 172.926C551.912 172.647 549.685 172.647 547.178 172.09C543.837 171.533 541.609 168.749 541.052 165.407C540.774 162.901 540.495 160.395 540.495 157.889C540.495 149.813 540.495 141.46 540.495 133.384C540.495 132.827 540.495 132.549 540.495 131.992C541.052 132.27 541.609 132.27 541.888 132.549C552.191 138.675 563.329 140.067 574.746 138.118C593.96 134.777 606.769 123.638 613.731 105.538C617.351 94.6781 617.351 83.5397 614.845 72.1227ZM593.682 96.6274C592.846 103.589 591.175 110.55 588.112 116.955C586.163 120.575 583.935 123.638 580.872 126.144C576.138 130.321 570.569 131.713 564.722 131.713C554.14 131.713 546.343 126.423 541.052 117.512C540.495 116.677 540.217 115.284 540.217 114.449C540.217 105.26 540.217 96.0704 540.217 87.1597C540.217 77.9704 540.217 68.7812 540.217 59.592C540.217 58.4781 540.495 57.6427 541.331 57.0858C544.115 54.8581 546.9 52.352 549.963 50.4027C554.975 47.0612 560.545 46.5043 566.392 47.0612C579.48 48.175 586.72 56.2504 590.897 67.3889C594.238 76.8566 594.795 86.6027 593.682 96.6274Z" fill="#18191D"></path><path d="M229.171 8.07428C229.171 8.90966 229.171 9.18812 229.171 9.74505C229.171 43.1605 229.171 76.5759 229.171 110.27C229.171 113.333 229.449 116.674 230.006 119.737C230.842 124.471 234.74 127.534 240.031 127.813C241.98 128.091 244.208 128.091 246.157 128.37C247.271 128.37 247.828 129.205 248.106 130.04C248.663 131.711 248.663 133.382 248.106 135.053C247.549 136.445 246.436 137.28 244.765 137.28C242.537 137.28 240.309 137.002 238.082 137.002C223.602 136.445 208.843 136.445 194.085 137.002C193.528 137.002 192.971 137.002 192.692 137.002C189.908 137.002 188.516 135.888 188.237 133.104C188.237 131.99 188.237 130.597 188.794 129.484C189.073 128.927 189.908 128.091 190.465 128.091C192.136 127.813 194.085 127.813 196.034 127.534C203.274 126.977 206.616 123.914 207.451 116.674C207.73 114.447 207.729 112.219 207.729 109.713C207.729 76.2974 207.729 42.882 207.729 9.74505C207.729 9.18812 207.729 8.6312 207.729 8.07428C207.172 8.07428 206.894 8.07428 206.616 8.07428C202.16 8.07428 197.427 8.07428 192.971 8.07428C190.744 8.07428 188.794 8.35274 186.567 8.90966C181.276 10.0235 177.934 13.6435 175.985 18.6558C174.036 23.9466 172.922 29.5159 172.086 35.3636C171.808 37.3128 170.973 38.7051 169.023 39.262C166.517 40.0974 163.733 40.6543 161.227 39.262C159.834 38.4266 159.277 37.3128 159.277 35.642C159.556 29.2374 159.556 22.8327 159.556 16.4281C159.556 12.8081 159.556 9.46659 159.834 5.84659C159.834 1.66965 161.505 0.277344 165.682 0.277344C177.377 0.277344 189.351 0.277344 201.046 0.277344C224.437 0.277344 247.55 0.277344 270.94 0.277344C271.497 0.277344 271.776 0.277344 272.333 0.277344C275.674 0.555806 277.345 1.94811 277.345 5.28966C277.623 11.6943 277.623 17.8204 277.902 24.225C277.902 27.845 278.18 31.4651 278.18 35.0851C278.18 38.7051 275.953 40.9328 272.333 40.6543C271.497 40.6543 270.662 40.3759 269.548 40.0974C267.042 39.5405 265.371 38.1482 264.814 35.0851C263.979 30.6297 262.865 25.8958 261.751 21.4404C261.473 20.605 261.194 19.7697 260.916 19.2127C258.688 13.0866 254.232 9.46659 247.828 8.90966C241.423 8.07428 235.297 8.07428 229.171 8.07428Z" fill="#18191D"></path><path d="M317.164 52.3501C317.721 51.7932 317.999 51.2363 318.556 50.6793C322.733 45.1101 326.631 39.5409 330.808 33.9716C336.099 27.2887 341.668 21.1625 349.187 16.7071C354.478 13.3656 360.325 11.6948 366.73 11.9733C372.299 12.2518 377.033 14.201 380.096 18.9348C384.551 25.061 383.159 34.5286 377.033 39.2624C372.578 42.604 365.059 42.604 360.604 38.984C360.325 38.7055 360.047 38.427 359.768 38.1486C360.047 37.8701 360.325 37.3132 360.882 37.0347C362.831 35.0855 363.11 33.1363 361.996 30.9086C360.882 28.4024 358.376 27.2887 355.87 27.5671C353.364 27.8456 351.136 28.9593 349.187 30.0732C345.01 32.5793 341.39 35.6424 338.048 39.2624C330.53 46.7809 323.847 54.8563 318.556 64.0455C317.442 65.7163 317.164 67.387 317.164 69.3363C317.164 84.0947 317.164 98.8532 317.164 113.612C317.164 116.396 317.442 118.902 317.442 121.687C317.721 125.029 319.948 127.535 323.29 128.37C324.682 128.649 326.075 128.649 327.467 128.927C328.302 128.927 328.859 128.927 329.695 128.927C332.201 129.205 332.758 129.484 333.315 131.155C333.871 133.661 333.315 135.889 331.644 136.724C331.087 137.002 330.251 137.002 329.695 137.002C320.227 136.724 310.759 136.445 301.291 136.445C296.279 136.445 291.545 136.724 286.533 137.002C283.47 137.281 281.799 136.445 281.521 133.661C281.242 130.598 282.078 128.927 285.141 128.927C287.368 128.927 289.596 128.649 291.545 128.37C294.887 127.813 296.836 125.029 297.115 121.965C297.393 120.016 297.393 117.789 297.393 115.839C297.393 97.4609 297.393 79.3609 297.393 60.9824C297.393 59.5901 297.393 58.1978 297.115 56.8055C296.558 52.907 293.773 50.6793 289.596 50.4009C287.647 50.1224 285.698 50.1224 283.748 49.844C282.356 49.5655 281.521 48.7301 281.242 47.3378C280.685 43.9963 281.799 42.3255 285.141 41.7686C293.216 40.6547 301.013 38.984 308.81 35.9209C310.202 35.364 311.595 35.0855 313.265 35.0855C315.493 34.807 316.885 35.9209 316.885 38.1486C317.164 42.3255 316.885 46.7809 316.885 50.9578C316.885 51.5147 316.885 51.7932 316.885 52.3501H317.164Z" fill="#18191D"></path><path d="M840.122 46.5044C835.945 46.7828 832.325 46.7828 828.427 47.0613C826.199 47.0613 825.085 46.2259 824.807 44.2767C824.528 43.1628 824.807 41.7705 825.085 40.3782C825.364 38.9859 826.477 38.429 827.87 37.872C829.262 37.5936 830.654 37.3151 832.047 36.7582C839.008 34.809 843.464 30.3536 846.248 23.949C847.641 20.6075 849.033 17.2659 850.147 13.9244C850.982 11.6967 852.096 10.8613 854.324 10.8613C854.881 10.8613 855.716 10.8613 856.273 10.8613C859.058 11.4183 859.893 12.2536 859.614 15.3167C859.058 22.5567 858.779 30.0751 858.222 37.3151C858.222 37.5936 858.222 38.1505 858.222 38.429C861.564 38.1505 864.627 38.1505 867.69 37.872C872.981 37.5936 878.271 37.3151 883.562 37.0367C885.233 37.0367 885.79 37.3151 886.347 38.9859C887.182 41.7705 886.625 44.2767 885.233 46.7828C884.676 47.6182 884.119 47.8967 883.005 47.8967C875.765 47.6182 868.804 47.3397 861.564 47.3397C861.007 47.3397 860.45 47.3397 859.614 47.3397C859.614 47.8967 859.614 48.1751 859.614 48.732C859.614 70.452 859.614 91.8936 859.614 113.614C859.614 117.234 860.45 120.854 862.121 123.917C864.07 127.815 867.133 129.207 871.31 129.486C873.259 129.486 875.208 129.486 877.157 129.207C879.385 128.929 880.777 129.764 881.334 131.992C881.613 132.827 881.891 133.941 882.17 134.777C882.727 136.726 881.891 138.118 879.942 138.675C875.208 140.067 870.474 140.346 865.462 140.346C859.893 140.346 854.881 138.675 850.425 135.334C844.577 130.878 841.514 124.752 840.401 117.234C840.122 114.727 839.844 112.221 839.844 109.715C839.844 89.3874 839.844 69.0597 839.844 48.4536C840.122 47.8967 840.122 47.3397 840.122 46.5044Z" fill="#18191D"></path><path d="M381.486 84.9296C381.486 95.7896 381.486 106.65 381.486 117.788C381.486 119.459 381.486 121.13 382.043 122.8C382.6 125.863 384.549 127.813 387.612 128.37C389.005 128.648 390.397 128.648 391.511 128.926C392.346 128.926 393.46 128.926 394.296 128.926C396.802 129.205 397.08 129.483 397.359 131.711C397.637 133.939 397.08 136.167 395.409 137.002C394.852 137.28 394.017 137.28 393.46 137.28C383.992 137.002 374.525 136.723 365.057 136.723C360.045 136.723 355.311 137.002 350.299 137.28C346.4 137.559 344.172 134.774 345.565 130.876C345.843 129.762 346.4 129.205 347.514 129.205C349.463 128.926 351.691 128.926 353.64 128.648C358.096 128.091 360.323 125.863 360.88 121.408C361.159 118.902 361.159 116.396 361.159 113.89C361.159 101.637 361.159 89.385 361.159 77.1326C361.159 74.6265 361.159 71.8419 360.88 69.3357C360.323 65.1588 358.095 62.9311 353.919 62.3742C351.969 62.0957 350.299 62.0957 348.349 62.0957C345.565 61.8173 345.008 60.7034 345.008 57.9188C345.008 55.6911 346.122 54.2988 348.349 54.0203C350.299 53.7419 352.248 53.4634 354.197 53.185C360.323 52.0711 366.171 50.4003 372.019 48.4511C373.689 47.8942 375.36 47.6157 377.031 47.3373C378.98 47.0588 380.372 48.1727 380.651 50.1219C380.651 50.6788 380.651 51.5142 380.651 52.0711C381.486 62.6526 381.486 73.7911 381.486 84.9296Z" fill="#18191D"></path></g></svg>