<svg xmlns="http://www.w3.org/2000/svg" width="1003" height="186" viewBox="0 0 1003 186" fill="none"><path d="M607.35 66.9137C607.35 73.2782 610.03 73.6132 615.054 73.6132C636.493 73.2782 657.931 73.9482 679.37 73.2782C686.069 73.2782 687.409 75.2881 687.074 81.3176C686.739 89.357 686.739 97.3964 687.074 105.436C687.409 111.13 685.734 112.805 680.04 112.47C658.601 112.135 637.163 112.47 615.724 112.135C610.03 112.135 607.35 112.805 607.35 119.84C607.35 127.544 611.035 127.209 616.059 127.209C641.517 127.209 666.976 127.209 692.434 127.209C697.458 127.209 699.468 128.549 699.133 133.909C698.798 147.643 698.798 161.377 699.133 174.776C699.133 179.8 697.458 180.805 692.769 180.805C646.542 180.805 600.651 180.47 554.424 180.805C548.73 180.805 547.725 178.795 547.725 173.771C548.06 146.303 547.725 119.17 547.725 91.7018C547.725 64.9039 548.06 38.1059 547.725 11.3079C547.725 5.94832 548.73 3.93848 554.759 3.93848C600.651 4.27345 646.207 4.27345 692.099 3.93848C697.123 3.93848 699.133 5.27838 698.798 10.638C698.463 24.7069 698.463 38.4409 698.798 52.5098C698.798 58.2044 697.123 59.8792 691.764 59.8792C665.971 59.5443 640.513 59.8792 614.72 59.5443C609.695 59.8792 607.35 60.8842 607.35 66.9137Z" fill="#212020"></path><path d="M502.838 17.6731C493.124 10.6386 481.735 7.28889 469.676 6.28397C438.523 3.2692 407.706 5.61402 376.553 4.94407C370.523 4.94407 372.198 8.96377 371.863 11.9785C371.863 38.7765 371.863 65.5745 371.863 92.3725C371.863 119.505 371.863 146.303 371.863 173.436C371.863 178.796 372.533 181.476 379.233 181.141C394.642 180.471 410.385 180.806 425.794 181.141C430.484 181.141 431.824 179.801 431.824 175.111C431.489 163.387 432.159 151.663 431.489 139.939C431.154 132.904 433.499 131.564 440.198 131.564C455.607 132.234 471.351 131.899 486.09 126.54C508.198 118.835 522.267 104.097 525.617 80.3134C528.631 55.8602 524.947 33.0819 502.838 17.6731ZM439.528 80.3134C428.474 80.9833 432.159 73.6139 431.489 67.9193C432.829 63.8996 427.469 56.1952 438.858 56.5302C454.937 57.2001 460.297 59.5449 460.297 68.2543C460.297 76.9636 454.937 79.3084 439.528 80.3134Z" fill="#212020"></path><path d="M165.178 52.8457C165.513 59.2102 163.168 60.5501 157.474 60.2152C145.08 59.8802 132.686 60.5501 120.627 59.8802C113.927 59.5452 111.917 61.2201 112.252 68.2546C112.587 103.092 112.252 137.929 112.587 172.767C112.587 179.466 110.912 181.476 104.213 181.141C89.809 180.471 75.4051 180.806 61.0012 181.141C54.9716 181.141 52.9618 179.801 52.9618 173.437C53.2967 138.264 52.9618 103.427 53.2967 68.2546C53.2967 61.89 51.6219 59.8802 45.2574 60.2152C32.5283 60.5501 19.4643 60.2152 6.73526 60.5501C2.04562 60.5501 0.035769 59.8802 0.035769 54.5206C0.370744 40.1167 0.370744 25.7128 0.035769 11.3089C-0.299206 5.6143 1.71064 4.60938 6.40029 4.60938C31.8584 4.94435 57.3164 4.60938 82.7745 4.60938C107.898 4.60938 133.021 4.94435 158.144 4.60938C163.838 4.60938 165.513 6.28425 165.178 11.9788C164.843 25.7128 164.843 39.1118 165.178 52.8457Z" fill="#212020"></path><path d="M354.098 4.94542C347.399 19.3493 340.699 32.7483 334.335 45.8123C322.275 70.2655 310.551 95.0536 298.492 119.507C296.817 123.191 296.147 126.541 296.147 130.226C296.147 145.3 296.147 160.374 296.147 175.113C296.147 179.467 294.808 181.142 290.118 181.142C274.374 180.807 258.63 180.807 242.886 181.142C237.862 181.142 236.522 179.802 236.522 174.778C236.857 160.709 236.522 146.305 236.857 132.236C236.857 126.206 235.517 120.847 232.502 115.487C214.749 80.3147 196.995 45.1424 179.241 10.305C178.571 8.96512 177.901 7.62522 176.896 4.94542C198 4.94542 217.763 4.94542 237.862 4.94542C241.547 4.94542 241.882 7.9602 242.886 10.305C250.256 26.3838 257.625 42.1276 265.665 59.5463C273.369 42.7976 280.404 27.0538 287.103 11.3099C289.113 6.28532 291.793 4.61045 297.152 4.94542C315.576 4.94542 334.335 4.94542 354.098 4.94542Z" fill="#212020"></path><path d="M897.943 66.8108C892.531 48.8598 882.623 33.801 868.18 21.9331C843.436 1.59353 815.372 -4.93753 784.47 3.75811C739.089 16.503 709.736 62.8549 719.477 111.558C723.731 132.849 734.274 150.688 751.05 164.478C773.703 183.12 799.678 189.52 828.434 183.754C848.027 179.817 864.429 170.002 877.753 155.167C893.576 137.552 901.47 116.783 901.75 94.9504C901.75 84.3701 900.35 74.7974 897.943 66.8108ZM850.621 98.2159C849.912 98.2346 849.184 98.2719 848.475 98.2906C844.612 98.3652 840.787 98.7384 837.017 99.6154C825.373 102.321 818.413 109.636 816.025 121.261C815.316 124.713 815.185 128.277 814.849 131.804C814.756 132.663 814.83 133.54 814.83 134.659C811.285 134.697 807.907 134.697 804.306 134.659C804.231 132.644 804.157 130.909 804.082 129.173C803.933 125.684 803.392 122.232 802.44 118.873C799.548 108.703 792.905 102.377 782.698 99.7834C778.816 98.7944 774.879 98.4025 770.886 98.3092C770.083 98.2906 769.3 98.3092 768.367 98.3092V87.7662C769.02 87.7102 769.691 87.6543 770.345 87.6356C774.207 87.5236 778.033 87.2437 781.821 86.3667C793.278 83.7356 800.275 76.6634 802.925 65.2434C803.784 61.53 804.138 57.7607 804.194 53.954C804.213 53.1516 804.194 52.3492 804.194 51.6215C805.724 51.1923 812.255 51.099 814.737 51.4535C814.756 52.1439 814.812 52.853 814.812 53.5808C814.812 57.8353 815.26 62.0152 816.323 66.1391C819.085 76.9993 825.971 83.661 836.831 86.2921C840.6 87.2064 844.425 87.5236 848.288 87.6169C849.035 87.6356 849.762 87.6169 850.621 87.6169V98.2159Z" fill="#212020"></path><path d="M1003 5.06445V181.459H940.954V60.2799H916.883V29.3973C917.946 29.36 918.935 29.2854 919.906 29.2667C923.768 29.1734 927.594 28.6696 931.344 27.7366C942.41 24.9562 949.594 18.0706 952.916 7.15439C953.121 6.50129 953.307 5.84818 953.531 5.06445H1003Z" fill="#212020"></path></svg>