<svg xmlns="http://www.w3.org/2000/svg" width="126" height="126" viewBox="0 0 126 126" fill="none"><rect y="0.759277" width="125.019" height="125.019" rx="29" fill="black"></rect><path d="M84.4852 31.9965C80.4176 30.0441 75.6993 29.0679 70.3301 29.0679H36V101.47H45.7621V78.8547H70.3301C75.6993 78.8547 80.4176 77.8784 84.4852 75.926C88.5527 73.9736 91.6441 71.045 93.9219 67.4655C96.1997 63.7234 97.3386 59.3304 97.3386 53.9613C97.3386 48.5921 96.1997 44.1991 93.9219 40.457C91.6441 36.7149 88.5527 33.9489 84.4852 31.9965ZM82.8582 66.3266C79.7668 68.7671 75.3739 70.0688 69.5166 70.0688H45.7621V37.8538H69.3539C75.2112 37.8538 79.7668 39.1554 82.6954 41.5959C85.7868 44.1991 87.2511 48.104 87.2511 53.7986C87.4138 59.6558 85.9495 63.8861 82.8582 66.3266Z" fill="white"></path></svg>