<svg xmlns="http://www.w3.org/2000/svg" width="167" height="25" viewBox="0 0 167 25" fill="none"><g clip-path="url(#clip0_6467_11216)"><path d="M2.4009 24H0.270902V3.9H9.5109C13.8609 3.9 16.9209 6.39 16.9209 10.68C16.9209 15 13.8609 17.49 9.5109 17.49H2.4009V24ZM9.3309 5.85H2.4009V15.54H9.3309C12.8709 15.54 14.7609 14.1 14.7609 10.68C14.7609 7.32 12.8709 5.85 9.3309 5.85ZM23.936 24.3C21.026 24.3 19.046 22.92 19.046 20.52C19.046 18.09 21.056 17.04 23.816 16.74L30.866 15.96V14.82C30.866 11.94 29.606 10.8 26.366 10.8C23.186 10.8 21.506 11.94 21.506 14.55V14.67H19.376V14.55C19.376 11.43 21.956 8.88 26.516 8.88C31.016 8.88 32.936 11.46 32.936 14.73V24H31.016V20.01H30.866C29.996 22.74 27.386 24.3 23.936 24.3ZM21.176 20.37C21.176 21.87 22.166 22.65 24.416 22.65C28.016 22.65 30.866 21.06 30.866 17.49V17.37L24.476 18.09C22.256 18.3 21.176 18.84 21.176 20.37ZM43.5473 24.3C38.9873 24.3 36.3473 22.47 36.3473 19.05V18.99H38.4773V19.17C38.4773 21.66 39.9473 22.53 43.5773 22.53C46.9073 22.53 48.0473 21.75 48.0473 20.04C48.0473 18.48 47.1173 17.97 44.6573 17.58L40.6973 17.01C37.9973 16.65 36.2873 15.6 36.2873 13.14C36.2873 10.53 38.7773 8.88 42.8573 8.88C47.1173 8.88 49.8773 10.68 49.8773 14.16V14.22H47.7473V14.07C47.7473 11.85 46.5773 10.65 42.7973 10.65C39.6773 10.65 38.3873 11.4 38.3873 13.17C38.3873 14.7 39.1673 15.24 41.6273 15.6L45.2573 16.11C48.4373 16.56 50.1473 17.64 50.1473 20.04C50.1473 22.83 47.3873 24.3 43.5473 24.3ZM60.0555 24.3C55.4955 24.3 52.8555 22.47 52.8555 19.05V18.99H54.9855V19.17C54.9855 21.66 56.4555 22.53 60.0855 22.53C63.4155 22.53 64.5555 21.75 64.5555 20.04C64.5555 18.48 63.6255 17.97 61.1655 17.58L57.2055 17.01C54.5055 16.65 52.7955 15.6 52.7955 13.14C52.7955 10.53 55.2855 8.88 59.3655 8.88C63.6255 8.88 66.3855 10.68 66.3855 14.16V14.22H64.2555V14.07C64.2555 11.85 63.0855 10.65 59.3055 10.65C56.1855 10.65 54.8955 11.4 54.8955 13.17C54.8955 14.7 55.6755 15.24 58.1355 15.6L61.7655 16.11C64.9455 16.56 66.6555 17.64 66.6555 20.04C66.6555 22.83 63.8955 24.3 60.0555 24.3ZM72.1837 7.29H70.0537V3.9H72.1837V7.29ZM72.1837 24H70.0537V9.18H72.1837V24ZM83.6266 24.3C78.7966 24.3 75.5866 21.09 75.5866 16.59C75.5866 12.09 78.7966 8.88 83.6266 8.88C88.4866 8.88 91.6966 12.09 91.6966 16.59C91.6966 21.09 88.4866 24.3 83.6266 24.3ZM83.6266 22.38C87.7066 22.38 89.5966 20.19 89.5966 16.59C89.5966 13.02 87.7066 10.8 83.6266 10.8C79.5466 10.8 77.6866 13.02 77.6866 16.59C77.6866 20.19 79.5466 22.38 83.6266 22.38ZM97.2607 24H95.1307V9.18H97.0507V13.83H97.2007C97.7107 11.31 99.8107 8.88 103.501 8.88C107.671 8.88 109.741 11.85 109.741 15.36V24H107.611V15.66C107.611 12.6 106.141 10.83 102.751 10.83C99.1507 10.83 97.2607 13.02 97.2607 16.83V24ZM117.917 24.3C115.007 24.3 113.027 22.92 113.027 20.52C113.027 18.09 115.037 17.04 117.797 16.74L124.847 15.96V14.82C124.847 11.94 123.587 10.8 120.347 10.8C117.167 10.8 115.487 11.94 115.487 14.55V14.67H113.357V14.55C113.357 11.43 115.937 8.88 120.497 8.88C124.997 8.88 126.917 11.46 126.917 14.73V24H124.997V20.01H124.847C123.977 22.74 121.367 24.3 117.917 24.3ZM115.157 20.37C115.157 21.87 116.147 22.65 118.397 22.65C121.997 22.65 124.847 21.06 124.847 17.49V17.37L118.457 18.09C116.237 18.3 115.157 18.84 115.157 20.37ZM140.108 24H136.898C133.958 24 132.068 22.77 132.068 19.29V11.01H129.428V9.18H132.068V5.64H134.228V9.18H140.108V11.01H134.228V19.41C134.228 21.48 135.248 22.05 137.408 22.05H140.108V24ZM150.094 24.3C145.324 24.3 142.294 21.3 142.294 16.59C142.294 12.09 145.294 8.88 150.064 8.88C154.414 8.88 157.504 11.4 157.504 15.81C157.504 16.35 157.444 16.8 157.354 17.19H144.304C144.424 20.52 146.134 22.53 150.064 22.53C153.544 22.53 155.164 21.24 155.164 19.08V18.87H157.294V19.08C157.294 22.17 154.234 24.3 150.094 24.3ZM150.034 10.65C146.194 10.65 144.454 12.63 144.304 15.87H155.494C155.494 15.72 155.494 15.57 155.494 15.42C155.494 12.3 153.514 10.65 150.034 10.65Z" fill="black"></path><path d="M165.903 1.82588C165.599 1.27029 165.15 0.807993 164.603 0.488795C164.026 0.157309 163.37 -0.0113863 162.705 0.000685836C162.031 -0.0121884 161.365 0.1564 160.779 0.488795C160.229 0.806099 159.776 1.26866 159.471 1.82588C159.152 2.41365 158.99 3.07383 159.001 3.74253C158.99 4.41091 159.152 5.07077 159.471 5.65818C159.774 6.21403 160.228 6.67377 160.779 6.98532C161.367 7.31257 162.032 7.47792 162.705 7.46449C163.369 7.47721 164.025 7.31176 164.603 6.98532C165.151 6.67169 165.601 6.21227 165.903 5.65818C166.222 5.07076 166.383 4.41085 166.372 3.74253C166.383 3.07391 166.221 2.41373 165.903 1.82588ZM164.843 5.94449C164.302 6.51644 163.589 6.80208 162.705 6.80141C161.795 6.80141 161.07 6.51577 160.53 5.94449C159.991 5.37321 159.721 4.63922 159.719 3.74253C159.719 2.84584 159.99 2.11152 160.53 1.53957C161.071 0.967627 161.796 0.681985 162.705 0.682647C163.589 0.682647 164.302 0.968289 164.843 1.53957C165.384 2.11086 165.654 2.84518 165.653 3.74253C165.653 4.63922 165.383 5.37321 164.843 5.94449Z" fill="black"></path><path d="M164.083 3.69604C164.251 3.48469 164.339 3.22054 164.331 2.95045C164.331 2.56872 164.211 2.27048 163.971 2.05575C163.731 1.84102 163.403 1.73333 162.985 1.73267H161.234V5.6962H162.1V4.14737H162.488L163.446 5.6962L164.478 5.67731L163.409 4.11058C163.673 4.04866 163.909 3.90324 164.083 3.69604ZM163.308 3.33716C163.19 3.41462 163.051 3.45321 162.91 3.44751H162.099V2.50708H162.91C163.051 2.50174 163.19 2.54068 163.308 2.61842C163.362 2.65877 163.404 2.71201 163.432 2.77319C163.459 2.83438 163.471 2.90151 163.465 2.96835C163.472 3.03802 163.461 3.1082 163.433 3.17257C163.406 3.23694 163.363 3.2935 163.308 3.33716Z" fill="black"></path></g><defs><clipPath id="clip0_6467_11216"><rect width="167" height="25" fill="white"></rect></clipPath></defs></svg>